<svg xmlns="http://www.w3.org/2000/svg" xmlns:xlink="http://www.w3.org/1999/xlink" viewBox="0 0 700 348" width="700" height="348"><path d="M 122.949,178.163 C 125.299,171.563 125.365,171.589 127.781,165.015" stroke-width="5.426" stroke="black" fill="none" stroke-linecap="round"></path><path d="M 127.781,165.015 C 128.709,162.480 128.735,162.496 129.822,160.028" stroke-width="4.563" stroke="black" fill="none" stroke-linecap="round"></path><path d="M 129.822,160.028 C 131.156,157.708 130.921,157.605 132.203,155.264" stroke-width="4.317" stroke="black" fill="none" stroke-linecap="round"></path><path d="M 132.203,155.264 C 133.628,149.521 133.368,152.547 134.246,149.705" stroke-width="4.638" stroke="black" fill="none" stroke-linecap="round"></path><path d="M 134.246,149.705 C 134.861,152.873 134.908,149.902 134.762,156.027" stroke-width="5.034" stroke="black" fill="none" stroke-linecap="round"></path><path d="M 134.762,156.027 C 134.350,160.009 134.638,160.007 133.801,163.973" stroke-width="4.121" stroke="black" fill="none" stroke-linecap="round"></path><path d="M 133.801,163.973 C 133.240,169.128 133.092,169.096 132.248,174.200" stroke-width="3.601" stroke="black" fill="none" stroke-linecap="round"></path><path d="M 132.248,174.200 C 130.815,179.665 131.164,179.734 129.649,185.186" stroke-width="3.499" stroke="black" fill="none" stroke-linecap="round"></path><path d="M 129.649,185.186 C 129.070,189.361 128.781,189.299 128.180,193.468" stroke-width="3.680" stroke="black" fill="none" stroke-linecap="round"></path><path d="M 128.180,193.468 C 127.244,196.742 127.459,196.791 126.429,200.046" stroke-width="3.909" stroke="black" fill="none" stroke-linecap="round"></path><path d="M 126.429,200.046 C 125.493,205.966 125.673,203.107 125.038,206.198" stroke-width="4.430" stroke="black" fill="none" stroke-linecap="round"></path><path d="M 125.038,206.198 C 124.816,203.551 124.655,206.393 124.752,200.900" stroke-width="4.947" stroke="black" fill="none" stroke-linecap="round"></path><path d="M 124.752,200.900 C 124.306,197.541 124.673,197.581 124.752,194.258" stroke-width="4.279" stroke="black" fill="none" stroke-linecap="round"></path><path d="M 124.752,194.258 C 126.407,181.606 126.463,181.684 129.067,169.186" stroke-width="2.548" stroke="black" fill="none" stroke-linecap="round"></path><path d="M 129.067,169.186 C 130.852,162.249 130.562,162.203 133.063,155.452" stroke-width="2.932" stroke="black" fill="none" stroke-linecap="round"></path><path d="M 133.063,155.452 C 134.663,150.824 134.575,150.804 136.512,146.298" stroke-width="3.302" stroke="black" fill="none" stroke-linecap="round"></path><path d="M 136.512,146.298 C 138.111,141.759 138.310,141.894 140.356,137.591" stroke-width="3.509" stroke="black" fill="none" stroke-linecap="round"></path><path d="M 140.356,137.591 C 141.610,134.908 141.676,135.141 143.640,133.062" stroke-width="3.986" stroke="black" fill="none" stroke-linecap="round"></path><path d="M 143.640,133.062 C 146.205,130.076 145.882,131.024 148.900,129.823" stroke-width="4.484" stroke="black" fill="none" stroke-linecap="round"></path><path d="M 148.900,129.823 C 152.155,130.260 151.184,129.609 153.599,132.129" stroke-width="4.893" stroke="black" fill="none" stroke-linecap="round"></path><path d="M 153.599,132.129 C 154.445,134.772 155.114,134.090 154.818,137.484" stroke-width="4.425" stroke="black" fill="none" stroke-linecap="round"></path><path d="M 154.818,137.484 C 155.155,140.778 155.266,140.748 155.242,144.080" stroke-width="4.104" stroke="black" fill="none" stroke-linecap="round"></path><path d="M 155.242,144.080 C 155.607,148.812 155.367,148.781 155.242,153.490" stroke-width="3.808" stroke="black" fill="none" stroke-linecap="round"></path><path d="M 155.242,153.490 C 155.345,158.855 154.845,158.586 153.717,163.627" stroke-width="3.594" stroke="black" fill="none" stroke-linecap="round"></path><path d="M 153.717,163.627 C 151.593,168.308 152.101,168.362 148.754,172.505" stroke-width="3.484" stroke="black" fill="none" stroke-linecap="round"></path><path d="M 148.754,172.505 C 146.121,177.139 145.904,176.718 142.339,180.446" stroke-width="3.449" stroke="black" fill="none" stroke-linecap="round"></path><path d="M 142.339,180.446 C 138.426,183.480 138.758,183.577 134.029,185.382" stroke-width="3.489" stroke="black" fill="none" stroke-linecap="round"></path><path d="M 134.029,185.382 C 129.789,187.003 129.954,187.146 125.396,187.777" stroke-width="3.623" stroke="black" fill="none" stroke-linecap="round"></path><path d="M 125.396,187.777 C 120.232,189.464 120.585,188.625 115.621,188.625" stroke-width="3.635" stroke="black" fill="none" stroke-linecap="round"></path><path d="M 115.621,188.625 C 110.831,187.613 111.960,187.959 108.854,184.768" stroke-width="4.247" stroke="black" fill="none" stroke-linecap="round"></path><path d="M 108.854,184.768 C 107.751,181.200 107.092,182.234 108.143,177.866" stroke-width="4.503" stroke="black" fill="none" stroke-linecap="round"></path><path d="M 108.143,177.866 C 108.327,173.853 108.437,175.370 110.227,173.109" stroke-width="4.902" stroke="black" fill="none" stroke-linecap="round"></path><path d="M 110.227,173.109 C 114.068,172.873 112.739,172.126 116.968,174.411" stroke-width="4.933" stroke="black" fill="none" stroke-linecap="round"></path><path d="M 116.968,174.411 C 119.388,176.831 119.859,175.944 121.808,179.251" stroke-width="4.249" stroke="black" fill="none" stroke-linecap="round"></path><path d="M 121.808,179.251 C 125.271,182.483 125.152,182.595 128.495,185.938" stroke-width="3.723" stroke="black" fill="none" stroke-linecap="round"></path><path d="M 128.495,185.938 C 132.345,190.577 132.600,190.337 136.466,194.960" stroke-width="3.411" stroke="black" fill="none" stroke-linecap="round"></path><path d="M 136.466,194.960 C 140.614,199.382 140.609,199.367 145.025,203.519" stroke-width="3.322" stroke="black" fill="none" stroke-linecap="round"></path><path d="M 145.025,203.519 C 147.653,206.051 147.666,205.995 150.569,208.186" stroke-width="3.689" stroke="black" fill="none" stroke-linecap="round"></path><path d="M 164.528,182.540 C 162.798,185.135 162.928,185.203 161.328,187.867" stroke-width="5.556" stroke="black" fill="none" stroke-linecap="round"></path><path d="M 161.328,187.867 C 158.501,191.917 160.129,190.095 159.188,192.460" stroke-width="5.227" stroke="black" fill="none" stroke-linecap="round"></path><path d="M 159.188,192.460 C 162.144,191.834 159.938,193.052 164.202,190.136" stroke-width="5.403" stroke="black" fill="none" stroke-linecap="round"></path><path d="M 164.202,190.136 C 166.182,185.669 166.153,188.526 167.207,185.842" stroke-width="5.454" stroke="black" fill="none" stroke-linecap="round"></path><path d="M 167.207,185.842 C 166.724,189.893 168.201,186.010 168.239,190.818" stroke-width="5.508" stroke="black" fill="none" stroke-linecap="round"></path><path d="M 168.239,190.818 C 172.194,188.586 169.818,191.781 173.395,189.620" stroke-width="5.510" stroke="black" fill="none" stroke-linecap="round"></path><path d="M 173.395,189.620 C 172.483,195.300 174.615,190.669 173.081,194.985" stroke-width="5.492" stroke="black" fill="none" stroke-linecap="round"></path><path d="M 173.081,194.985 C 174.716,191.557 173.927,194.539 176.282,188.098" stroke-width="5.407" stroke="black" fill="none" stroke-linecap="round"></path><path d="M 176.282,188.098 C 177.582,185.408 177.511,185.382 178.672,182.636" stroke-width="4.940" stroke="black" fill="none" stroke-linecap="round"></path><path d="M 178.672,182.636 C 180.028,177.032 179.703,180.012 180.525,177.306" stroke-width="5.013" stroke="black" fill="none" stroke-linecap="round"></path><path d="M 180.525,177.306 C 180.819,180.561 181.098,177.621 180.811,183.813" stroke-width="5.340" stroke="black" fill="none" stroke-linecap="round"></path><path d="M 180.811,183.813 C 180.573,186.324 180.805,186.328 180.497,188.840" stroke-width="4.995" stroke="black" fill="none" stroke-linecap="round"></path><path d="M 180.497,188.840 C 179.425,193.755 180.417,191.503 180.497,194.172" stroke-width="5.049" stroke="black" fill="none" stroke-linecap="round"></path><path d="M 180.497,194.172 C 182.485,191.122 181.648,194.619 184.943,190.569" stroke-width="5.355" stroke="black" fill="none" stroke-linecap="round"></path><path d="M 199.486,176.023 C 201.168,173.518 201.102,173.479 202.718,170.934" stroke-width="5.543" stroke="black" fill="none" stroke-linecap="round"></path><path d="M 202.718,170.934 C 204.648,167.832 204.592,167.809 206.335,164.604" stroke-width="4.250" stroke="black" fill="none" stroke-linecap="round"></path><path d="M 206.335,164.604 C 207.707,161.912 207.731,161.933 208.884,159.137" stroke-width="4.133" stroke="black" fill="none" stroke-linecap="round"></path><path d="M 208.884,159.137 C 209.906,156.459 210.002,156.500 210.925,153.781" stroke-width="4.139" stroke="black" fill="none" stroke-linecap="round"></path><path d="M 210.925,153.781 C 212.563,149.866 212.431,149.822 213.934,145.862" stroke-width="4.369" stroke="black" fill="none" stroke-linecap="round"></path><path d="M 213.934,145.862 C 214.704,142.858 214.935,142.935 215.668,139.919" stroke-width="4.635" stroke="black" fill="none" stroke-linecap="round"></path><path d="M 215.668,139.919 C 217.684,133.737 216.512,137.351 217.550,134.846" stroke-width="4.935" stroke="black" fill="none" stroke-linecap="round"></path><path d="M 217.550,134.846 C 216.194,141.139 217.230,137.485 214.759,147.414" stroke-width="5.160" stroke="black" fill="none" stroke-linecap="round"></path><path d="M 214.759,147.414 C 213.372,152.875 213.504,152.904 212.168,158.375" stroke-width="3.773" stroke="black" fill="none" stroke-linecap="round"></path><path d="M 212.168,158.375 C 211.180,163.466 211.060,163.441 210.134,168.546" stroke-width="3.513" stroke="black" fill="none" stroke-linecap="round"></path><path d="M 210.134,168.546 C 209.444,171.615 209.500,171.626 208.809,174.695" stroke-width="3.908" stroke="black" fill="none" stroke-linecap="round"></path><path d="M 208.809,174.695 C 208.166,177.983 208.132,177.976 207.509,181.268" stroke-width="3.996" stroke="black" fill="none" stroke-linecap="round"></path><path d="M 207.509,181.268 C 206.754,184.975 206.767,184.978 206.011,188.684" stroke-width="4.385" stroke="black" fill="none" stroke-linecap="round"></path><path d="M 206.011,188.684 C 205.430,191.189 205.507,191.202 205.015,193.721" stroke-width="4.725" stroke="black" fill="none" stroke-linecap="round"></path><path d="M 205.015,193.721 C 204.807,196.261 204.605,196.226 204.360,198.759" stroke-width="4.842" stroke="black" fill="none" stroke-linecap="round"></path><path d="M 204.360,198.759 C 203.825,201.604 203.852,201.601 203.106,204.402" stroke-width="4.980" stroke="black" fill="none" stroke-linecap="round"></path><path d="M 203.106,204.402 C 202.061,209.815 202.387,207.202 201.483,209.955" stroke-width="4.858" stroke="black" fill="none" stroke-linecap="round"></path><path d="M 201.483,209.955 C 200.901,207.443 200.978,210.077 200.939,204.927" stroke-width="5.259" stroke="black" fill="none" stroke-linecap="round"></path><path d="M 200.939,204.927 C 200.978,200.896 200.999,200.964 201.678,196.996" stroke-width="4.977" stroke="black" fill="none" stroke-linecap="round"></path><path d="M 201.678,196.996 C 202.555,194.336 202.169,194.255 203.320,191.644" stroke-width="4.381" stroke="black" fill="none" stroke-linecap="round"></path><path d="M 203.320,191.644 C 204.128,188.331 204.252,188.367 205.073,185.057" stroke-width="4.166" stroke="black" fill="none" stroke-linecap="round"></path><path d="M 205.073,185.057 C 206.081,182.364 205.867,182.306 206.798,179.594" stroke-width="4.149" stroke="black" fill="none" stroke-linecap="round"></path><path d="M 206.798,179.594 C 207.393,176.592 207.565,176.636 208.041,173.602" stroke-width="4.140" stroke="black" fill="none" stroke-linecap="round"></path><path d="M 208.041,173.602 C 208.686,170.932 208.624,170.919 209.260,168.247" stroke-width="4.173" stroke="black" fill="none" stroke-linecap="round"></path><path d="M 209.260,168.247 C 209.793,164.856 209.975,164.901 210.618,161.540" stroke-width="4.058" stroke="black" fill="none" stroke-linecap="round"></path><path d="M 210.618,161.540 C 211.158,158.750 211.293,158.828 212.259,156.192" stroke-width="4.134" stroke="black" fill="none" stroke-linecap="round"></path><path d="M 212.259,156.192 C 213.435,152.206 213.794,152.627 215.892,149.295" stroke-width="4.434" stroke="black" fill="none" stroke-linecap="round"></path><path d="M 215.892,149.295 C 218.667,145.948 218.429,146.289 222.248,144.357" stroke-width="4.513" stroke="black" fill="none" stroke-linecap="round"></path><path d="M 222.248,144.357 C 226.580,143.058 226.208,142.599 230.973,142.597" stroke-width="4.683" stroke="black" fill="none" stroke-linecap="round"></path><path d="M 230.973,142.597 C 234.360,141.544 233.606,142.321 236.300,142.883" stroke-width="4.956" stroke="black" fill="none" stroke-linecap="round"></path><path d="M 236.300,142.883 C 238.295,145.623 238.731,144.559 239.715,148.627" stroke-width="4.960" stroke="black" fill="none" stroke-linecap="round"></path><path d="M 239.715,148.627 C 240.831,151.083 240.842,151.014 241.394,153.664" stroke-width="4.893" stroke="black" fill="none" stroke-linecap="round"></path><path d="M 241.394,153.664 C 242.352,156.666 242.026,156.567 242.104,159.594" stroke-width="4.817" stroke="black" fill="none" stroke-linecap="round"></path><path d="M 242.104,159.594 C 241.967,163.755 241.786,163.349 240.260,167.029" stroke-width="4.618" stroke="black" fill="none" stroke-linecap="round"></path><path d="M 240.260,167.029 C 238.316,169.366 238.921,169.597 236.012,171.278" stroke-width="4.285" stroke="black" fill="none" stroke-linecap="round"></path><path d="M 236.012,171.278 C 232.980,173.676 233.058,173.729 229.744,175.755" stroke-width="3.931" stroke="black" fill="none" stroke-linecap="round"></path><path d="M 229.744,175.755 C 226.661,177.736 226.677,177.725 223.406,179.376" stroke-width="3.934" stroke="black" fill="none" stroke-linecap="round"></path><path d="M 244.045,190.059 C 241.051,195.133 242.624,192.733 241.202,195.406" stroke-width="5.569" stroke="black" fill="none" stroke-linecap="round"></path><path d="M 241.202,195.406 C 243.115,191.066 241.340,195.654 244.622,191.103" stroke-width="5.498" stroke="black" fill="none" stroke-linecap="round"></path><path d="M 244.622,191.103 C 245.628,195.653 246.001,191.137 246.974,195.548" stroke-width="5.530" stroke="black" fill="none" stroke-linecap="round"></path><path d="M 246.974,195.548 C 248.745,193.074 248.603,195.422 250.572,190.642" stroke-width="5.254" stroke="black" fill="none" stroke-linecap="round"></path><path d="M 250.572,190.642 C 253.231,187.580 252.994,187.420 255.472,184.241" stroke-width="4.675" stroke="black" fill="none" stroke-linecap="round"></path><path d="M 255.472,184.241 C 257.500,181.622 257.259,181.579 258.628,178.640" stroke-width="4.681" stroke="black" fill="none" stroke-linecap="round"></path><path d="M 258.628,178.640 C 260.106,174.312 260.217,174.440 260.906,169.876" stroke-width="4.748" stroke="black" fill="none" stroke-linecap="round"></path><path d="M 260.906,169.876 C 261.262,164.302 261.416,167.053 261.248,164.123" stroke-width="4.944" stroke="black" fill="none" stroke-linecap="round"></path><path d="M 261.248,164.123 C 261.076,166.665 261.235,163.965 260.852,169.202" stroke-width="5.248" stroke="black" fill="none" stroke-linecap="round"></path><path d="M 260.852,169.202 C 260.412,172.915 260.523,172.924 260.142,176.641" stroke-width="4.767" stroke="black" fill="none" stroke-linecap="round"></path><path d="M 260.142,176.641 C 259.874,180.356 259.872,180.351 259.773,184.075" stroke-width="4.659" stroke="black" fill="none" stroke-linecap="round"></path><path d="M 259.773,184.075 C 259.773,187.135 259.689,187.133 259.773,190.196" stroke-width="4.900" stroke="black" fill="none" stroke-linecap="round"></path><path d="M 259.773,190.196 C 259.698,193.631 259.773,193.629 259.773,197.063" stroke-width="5.241" stroke="black" fill="none" stroke-linecap="round"></path><path d="M 259.773,197.063 C 259.085,201.711 259.827,199.562 260.031,202.057" stroke-width="5.288" stroke="black" fill="none" stroke-linecap="round"></path><path d="M 260.031,202.057 C 261.736,200.183 260.987,202.406 263.576,198.452" stroke-width="5.366" stroke="black" fill="none" stroke-linecap="round"></path><path d="M 263.576,198.452 C 266.035,196.894 265.615,196.533 267.788,194.756" stroke-width="5.361" stroke="black" fill="none" stroke-linecap="round"></path><path d="M 267.788,194.756 C 268.801,191.886 269.597,192.549 270.701,189.760" stroke-width="5.227" stroke="black" fill="none" stroke-linecap="round"></path><path d="M 270.701,189.760 C 274.524,187.480 273.487,186.643 277.161,184.269" stroke-width="5.405" stroke="black" fill="none" stroke-linecap="round"></path><path d="M 277.161,184.269 C 278.697,181.216 279.287,181.680 280.227,178.160" stroke-width="4.290" stroke="black" fill="none" stroke-linecap="round"></path><path d="M 280.227,178.160 C 282.599,170.912 282.090,174.442 283.947,170.721" stroke-width="4.465" stroke="black" fill="none" stroke-linecap="round"></path><path d="M 283.947,170.721 C 284.951,174.065 285.056,170.563 285.143,177.462" stroke-width="5.102" stroke="black" fill="none" stroke-linecap="round"></path><path d="M 285.143,177.462 C 284.964,181.422 285.365,181.395 284.774,185.381" stroke-width="4.692" stroke="black" fill="none" stroke-linecap="round"></path><path d="M 209.873,177.392 C 212.301,178.177 212.304,178.166 214.735,178.940" stroke-width="5.582" stroke="black" fill="none" stroke-linecap="round"></path><path d="M 214.735,178.940 C 217.184,180.045 217.239,179.725 219.749,180.489" stroke-width="5.476" stroke="black" fill="none" stroke-linecap="round"></path></svg>